# xmcd
#
# Track frame offsets: 
#        182
#        16737
#        30975
#        46940
#        63402
#        80290
#        97632
#        111762
#        127472
#        144200
#        158937
#        175850
#        195192
#
# Disc length: 2852 seconds
#
# Revision: 3
# Processed by: cddbd v1.5.2PL0 Copyright (c) Steve Scherf et al.
# Submitted via: ExactAudioCopy v0.99pb4
#
DISCID=950b220d
DTITLE=Nana Mouskouri - Nuestras Canciones
DYEAR=1991
DGENRE=Ballad
TTITLE0=Siboney
TTITLE1=Caminito
TTITLE2=Un Viejo Amor
TTITLE3=Dos Cruces
TTITLE4=La Llorona
TTITLE5=Ave Maria no Morro
TTITLE6=Malagueña
TTITLE7=Quiéreme Mucho
TTITLE8=Cuando Salí Pa Colombia
TTITLE9=Llegó Con Tres Heridas
TTITLE10=Historia De Un Amor
TTITLE11=La Paloma
TTITLE12=Espérame En El Cielo
EXTD=
EXTT0=
EXTT1=
EXTT2=
EXTT3=
EXTT4=
EXTT5=
EXTT6=
EXTT7=
EXTT8=
EXTT9=
EXTT10=
EXTT11=
EXTT12=
PLAYORDER=
